<?xml version="1.0" encoding="iso-8859-1"?>
<!-- Generator: Adobe Illustrator 19.0.0, SVG Export Plug-In . SVG Version: 6.00 Build 0)  -->
<svg version="1.1" id="Layer_1" xmlns="http://www.w3.org/2000/svg" xmlns:xlink="http://www.w3.org/1999/xlink" x="0px" y="0px"
	 viewBox="0 0 238.804 238.804" style="enable-background:new 0 0 238.804 238.804;" xml:space="preserve">
<g>
	<g>
		<g>
			<path d="M119.402,8.234c-61.297,0-111.167,49.87-111.167,111.167s49.87,111.167,111.167,111.167s111.167-49.87,111.167-111.167
				S180.699,8.234,119.402,8.234z M119.402,16.468c13.006,0,25.443,2.449,36.909,6.87c-10.906,2.975-23.633,4.575-36.877,4.575
				c-13.248,0-25.988-1.609-36.904-4.59C93.986,18.911,106.41,16.468,119.402,16.468z M119.402,222.333
				c-56.758,0-102.933-46.175-102.933-102.933c0-39.441,22.308-73.752,54.959-91.03c13.368,5.005,30.301,7.777,48.005,7.777
				c17.702,0,34.598-2.766,47.964-7.765c32.639,17.281,54.937,51.586,54.937,91.018C222.334,176.159,176.16,222.333,119.402,222.333
				z"/>
			<path d="M119.402,41.172c-48.781,0-82.851,30.333-82.851,73.766c0,20.989,7.836,41.109,22.064,56.649l1.224,1.339h119.124
				l1.224-1.339c14.228-15.54,22.064-35.66,22.064-56.649C202.253,71.505,168.182,41.172,119.402,41.172z M175.309,164.692H63.495
				c-12.079-13.828-18.709-31.422-18.709-49.754c0-38.584,30.683-65.531,74.616-65.531c43.933,0,74.616,26.947,74.616,65.531
				C194.018,133.27,187.388,150.865,175.309,164.692z"/>
			<path d="M160.575,181.929H74.111c-2.274,0-4.117,1.842-4.117,4.117c0,2.275,1.844,4.117,4.117,4.117h86.463
				c2.274,0,4.117-1.842,4.117-4.117C164.691,183.771,162.848,181.929,160.575,181.929z"/>
			<path d="M148.223,194.281h-61.76c-2.274,0-4.117,1.842-4.117,4.117s1.844,4.117,4.117,4.117h61.76
				c2.274,0,4.117-1.842,4.117-4.117S150.497,194.281,148.223,194.281z"/>
			<path d="M205.865,197.63v8.235c13.623,0,24.704,11.081,24.704,24.704h8.235C238.804,212.406,224.027,197.63,205.865,197.63z"/>
			<path d="M0,230.568h8.235c0-13.623,11.081-24.704,24.704-24.704v-8.235C14.777,197.63,0,212.406,0,230.568z"/>
			<path d="M107.599,68.865c-1.761-1.437-4.352-1.18-5.794,0.579l-37.056,45.29c-1.439,1.761-1.18,4.354,0.579,5.796
				c0.766,0.623,1.689,0.929,2.605,0.929c1.192,0,2.374-0.515,3.188-1.512l37.056-45.288
				C109.617,72.898,109.358,70.305,107.599,68.865z"/>
			<path d="M112.098,79.739L93.57,102.383c-1.439,1.761-1.18,4.354,0.579,5.794c0.766,0.625,1.689,0.931,2.605,0.931
				c1.192,0,2.374-0.515,3.188-1.51l18.528-22.645c1.439-1.761,1.18-4.354-0.579-5.794
				C116.131,77.721,113.538,77.977,112.098,79.739z"/>
		</g>
	</g>
</g>
<g>
</g>
<g>
</g>
<g>
</g>
<g>
</g>
<g>
</g>
<g>
</g>
<g>
</g>
<g>
</g>
<g>
</g>
<g>
</g>
<g>
</g>
<g>
</g>
<g>
</g>
<g>
</g>
<g>
</g>
</svg>
